<mxfile host="65bd71144e">
    <diagram id="fjN8D4Odn0497USpxgly" name="Page-1">
        <mxGraphModel dx="514" dy="1363" grid="1" gridSize="10" guides="1" tooltips="1" connect="1" arrows="1" fold="1" page="1" pageScale="1" pageWidth="1169" pageHeight="827" background="#ffffff" math="0" shadow="0">
            <root>
                <mxCell id="0"/>
                <mxCell id="1" parent="0"/>
                <mxCell id="276" value="" style="group" vertex="1" connectable="0" parent="1">
                    <mxGeometry x="80" y="-700" width="120" height="60" as="geometry"/>
                </mxCell>
                <mxCell id="275" value="" style="rounded=0;whiteSpace=wrap;html=1;fontSize=15;fillColor=#F5F5F5;strokeColor=none;" vertex="1" parent="276">
                    <mxGeometry width="120" height="60" as="geometry"/>
                </mxCell>
                <mxCell id="274" value="" style="verticalLabelPosition=bottom;verticalAlign=top;html=1;shape=mxgraph.basic.obtuse_triangle;dx=0;fontSize=15;rotation=-180;strokeColor=none;fillColor=#FFFFFF;" vertex="1" parent="276">
                    <mxGeometry width="120" height="60" as="geometry"/>
                </mxCell>
                <mxCell id="272" value="" style="rounded=0;whiteSpace=wrap;html=1;fontSize=15;fillColor=none;" vertex="1" parent="276">
                    <mxGeometry width="120" height="60" as="geometry"/>
                </mxCell>
                <mxCell id="160" value="«component»&lt;br&gt;&lt;b&gt;Registry Features&lt;/b&gt;" style="html=1;dropTarget=0;verticalAlign=middle;fillColor=#dae8fc;strokeColor=#6c8ebf;" parent="1" vertex="1">
                    <mxGeometry x="80" y="-790" width="360" height="70" as="geometry"/>
                </mxCell>
                <mxCell id="161" value="" style="shape=module;jettyWidth=8;jettyHeight=4;" parent="160" vertex="1">
                    <mxGeometry x="1" width="20" height="20" relative="1" as="geometry">
                        <mxPoint x="-27" y="7" as="offset"/>
                    </mxGeometry>
                </mxCell>
                <mxCell id="254" value="Custom per module" style="rounded=0;whiteSpace=wrap;html=1;fillColor=#f8cecc;strokeColor=#b85450;" vertex="1" parent="1">
                    <mxGeometry x="200" y="-640" width="120" height="60" as="geometry"/>
                </mxCell>
                <mxCell id="260" value="&lt;font style=&quot;font-size: 15px&quot;&gt;Feature&lt;/font&gt;" style="text;html=1;align=center;verticalAlign=middle;resizable=0;points=[];autosize=1;strokeColor=none;fillColor=none;" vertex="1" parent="1">
                    <mxGeometry x="77" y="-661" width="70" height="20" as="geometry"/>
                </mxCell>
                <mxCell id="261" value="&lt;font style=&quot;font-size: 15px&quot;&gt;Module&lt;br&gt;&lt;/font&gt;" style="text;html=1;align=center;verticalAlign=middle;resizable=0;points=[];autosize=1;strokeColor=none;fillColor=none;" vertex="1" parent="1">
                    <mxGeometry x="140" y="-690" width="60" height="20" as="geometry"/>
                </mxCell>
                <mxCell id="277" value="" style="endArrow=none;html=1;fontSize=15;exitX=0;exitY=0;exitDx=0;exitDy=0;entryX=1;entryY=0;entryDx=0;entryDy=0;" edge="1" parent="1" source="272">
                    <mxGeometry width="50" height="50" relative="1" as="geometry">
                        <mxPoint x="130" y="-720" as="sourcePoint"/>
                        <mxPoint x="200" y="-640" as="targetPoint"/>
                    </mxGeometry>
                </mxCell>
                <mxCell id="283" value="String path" style="rounded=0;whiteSpace=wrap;html=1;fillColor=#f8cecc;strokeColor=#b85450;" vertex="1" parent="1">
                    <mxGeometry x="200" y="-520" width="120" height="60" as="geometry"/>
                </mxCell>
                <mxCell id="285" value="No" style="rounded=0;whiteSpace=wrap;html=1;fillColor=#f8cecc;strokeColor=#b85450;" vertex="1" parent="1">
                    <mxGeometry x="200" y="-580" width="120" height="60" as="geometry"/>
                </mxCell>
                <mxCell id="286" value="Yes" style="rounded=0;whiteSpace=wrap;html=1;fillColor=#d5e8d4;strokeColor=#82b366;" vertex="1" parent="1">
                    <mxGeometry x="320" y="-580" width="120" height="60" as="geometry"/>
                </mxCell>
                <mxCell id="255" value="Shared pre defined schemas" style="rounded=0;whiteSpace=wrap;html=1;fillColor=#d5e8d4;strokeColor=#82b366;" vertex="1" parent="1">
                    <mxGeometry x="320" y="-640" width="120" height="60" as="geometry"/>
                </mxCell>
                <mxCell id="287" value="Multiple schema instances" style="rounded=0;whiteSpace=wrap;html=1;fillColor=#f5f5f5;strokeColor=#666666;fontColor=#333333;" vertex="1" parent="1">
                    <mxGeometry x="80" y="-580" width="120" height="60" as="geometry"/>
                </mxCell>
                <mxCell id="253" value="Schemas" style="rounded=0;whiteSpace=wrap;html=1;fillColor=#f5f5f5;strokeColor=#666666;fontColor=#333333;" vertex="1" parent="1">
                    <mxGeometry x="80" y="-640" width="120" height="60" as="geometry"/>
                </mxCell>
                <mxCell id="250" value="OMA&lt;br&gt;&lt;b&gt;LwM2M&lt;/b&gt;" style="html=1;dropTarget=0;verticalAlign=middle;" vertex="1" parent="1">
                    <mxGeometry x="320" y="-700" width="120" height="60" as="geometry"/>
                </mxCell>
                <mxCell id="158" value="Apache&lt;br&gt;&lt;b&gt;Mynewt&lt;/b&gt;" style="html=1;dropTarget=0;verticalAlign=middle;" parent="1" vertex="1">
                    <mxGeometry x="200" y="-700" width="120" height="60" as="geometry"/>
                </mxCell>
                <mxCell id="282" value="Parameter identification" style="rounded=0;whiteSpace=wrap;html=1;fillColor=#f5f5f5;strokeColor=#666666;fontColor=#333333;" vertex="1" parent="1">
                    <mxGeometry x="80" y="-520" width="120" height="60" as="geometry"/>
                </mxCell>
                <mxCell id="288" value="No" style="rounded=0;whiteSpace=wrap;html=1;fillColor=#f8cecc;strokeColor=#b85450;" vertex="1" parent="1">
                    <mxGeometry x="320" y="-460" width="120" height="60" as="geometry"/>
                </mxCell>
                <mxCell id="289" value="Yes" style="rounded=0;whiteSpace=wrap;html=1;fillColor=#d5e8d4;strokeColor=#82b366;" vertex="1" parent="1">
                    <mxGeometry x="200" y="-460" width="120" height="60" as="geometry"/>
                </mxCell>
                <mxCell id="290" value="Nested configuration groups / parameters" style="rounded=0;whiteSpace=wrap;html=1;fillColor=#f5f5f5;strokeColor=#666666;fontColor=#333333;" vertex="1" parent="1">
                    <mxGeometry x="80" y="-460" width="120" height="60" as="geometry"/>
                </mxCell>
                <mxCell id="292" value="No" style="rounded=0;whiteSpace=wrap;html=1;fillColor=#f8cecc;strokeColor=#b85450;" vertex="1" parent="1">
                    <mxGeometry x="200" y="-400" width="120" height="60" as="geometry"/>
                </mxCell>
                <mxCell id="293" value="Parameter types&lt;br&gt;(string, int8, uint32, ...)" style="rounded=0;whiteSpace=wrap;html=1;fillColor=#f5f5f5;strokeColor=#666666;fontColor=#333333;" vertex="1" parent="1">
                    <mxGeometry x="80" y="-400" width="120" height="60" as="geometry"/>
                </mxCell>
                <mxCell id="295" value="String" style="rounded=0;whiteSpace=wrap;html=1;fillColor=#f8cecc;strokeColor=#b85450;" vertex="1" parent="1">
                    <mxGeometry x="200" y="-340" width="120" height="60" as="geometry"/>
                </mxCell>
                <mxCell id="296" value="Internal parameter value format" style="rounded=0;whiteSpace=wrap;html=1;fillColor=#f5f5f5;strokeColor=#666666;fontColor=#333333;" vertex="1" parent="1">
                    <mxGeometry x="80" y="-340" width="120" height="60" as="geometry"/>
                </mxCell>
                <mxCell id="284" value="Integer array" style="rounded=0;whiteSpace=wrap;html=1;fillColor=#d5e8d4;strokeColor=#82b366;" vertex="1" parent="1">
                    <mxGeometry x="320" y="-520" width="120" height="60" as="geometry"/>
                </mxCell>
                <mxCell id="291" value="Yes" style="rounded=0;whiteSpace=wrap;html=1;fillColor=#d5e8d4;strokeColor=#82b366;" vertex="1" parent="1">
                    <mxGeometry x="320" y="-400" width="120" height="60" as="geometry"/>
                </mxCell>
                <mxCell id="297" value="High" style="rounded=0;whiteSpace=wrap;html=1;fillColor=#f8cecc;strokeColor=#b85450;" vertex="1" parent="1">
                    <mxGeometry x="320" y="-280" width="120" height="60" as="geometry"/>
                </mxCell>
                <mxCell id="298" value="Low" style="rounded=0;whiteSpace=wrap;html=1;fillColor=#d5e8d4;strokeColor=#82b366;" vertex="1" parent="1">
                    <mxGeometry x="200" y="-280" width="120" height="60" as="geometry"/>
                </mxCell>
                <mxCell id="299" value="Module implementation boilerplate / expense" style="rounded=0;whiteSpace=wrap;html=1;fillColor=#f5f5f5;strokeColor=#666666;fontColor=#333333;" vertex="1" parent="1">
                    <mxGeometry x="80" y="-280" width="120" height="60" as="geometry"/>
                </mxCell>
                <mxCell id="294" value="Any&lt;br&gt;(memory efficient)" style="rounded=0;whiteSpace=wrap;html=1;fillColor=#d5e8d4;strokeColor=#82b366;" vertex="1" parent="1">
                    <mxGeometry x="320" y="-340" width="120" height="60" as="geometry"/>
                </mxCell>
            </root>
        </mxGraphModel>
    </diagram>
</mxfile>